<?xml version="1.0" encoding="UTF-8" standalone="no"?>
<svg
   version="1.1"
   width="100%"
   height="100%"
   viewBox="0 0 1000 600"
   id="svg142"
   sodipodi:docname="favicon.svg"
   inkscape:version="1.2.1 (9c6d41e, 2022-07-14)"
   xmlns:inkscape="http://www.inkscape.org/namespaces/inkscape"
   xmlns:sodipodi="http://sodipodi.sourceforge.net/DTD/sodipodi-0.dtd"
   xmlns="http://www.w3.org/2000/svg"
   xmlns:svg="http://www.w3.org/2000/svg">
  <defs
     id="defs146" />
  <sodipodi:namedview
     id="namedview144"
     pagecolor="#ffffff"
     bordercolor="#999999"
     borderopacity="1"
     inkscape:showpageshadow="0"
     inkscape:pageopacity="0"
     inkscape:pagecheckerboard="0"
     inkscape:deskcolor="#d1d1d1"
     showgrid="false"
     inkscape:zoom="0.28752575"
     inkscape:cx="678.20012"
     inkscape:cy="203.46004"
     inkscape:window-width="1158"
     inkscape:window-height="827"
     inkscape:window-x="177"
     inkscape:window-y="38"
     inkscape:window-maximized="0"
     inkscape:current-layer="svg142" />
  <path
     d="m 252.60089,587.59273 v 0 q -67.0651,0 -117.1993,-31.13396 -50.040098,-31.22802 -78.164098,-84.65429 -28.124,-53.52035 -28.124,-120.58537 v 0 q 0,-52.10943 17.3071,-94.81285 17.213,-42.70339 47.6886,-73.83734 30.475498,-31.134 71.109598,-48.06483 40.634,-16.93088 87.3821,-16.93088 v 0 q 64.9956,0 115.506,29.44088 50.4164,29.44091 79.5751,81.92658 29.0646,52.48566 29.0646,122.27844 v 0 q 0,50.13415 -16.2724,93.11974 -16.1784,42.98559 -46.3717,75.15422 -30.0994,32.16863 -71.1097,50.13415 -40.9162,17.96551 -90.3919,17.96551 z m 13.5446,-33.20327 v 0 q 44.0203,0 75.5305,-24.73787 31.5102,-24.73787 48.4411,-67.06502 16.9308,-42.32719 16.9308,-93.77818 v 0 q 0,-60.95111 -22.0101,-110.70902 -22.0101,-49.75794 -60.0105,-78.91665 -37.9063,-29.06464 -86.6296,-29.06464 v 0 q -39.9756,0 -71.4858,22.66855 -31.5103,22.66856 -49.758,63.96103 -18.247698,41.29248 -18.247698,96.22373 v 0 q 0,42.60936 10.816998,82.58498 10.8169,39.97567 32.1686,71.10963 21.3517,31.13395 52.4857,49.47574 31.134,18.24772 71.768,18.24772 z m 54.1788,-468.608648 v 0 q -19.6586,0 -29.8171,-10.91099 -10.1586,-10.81696 -10.1586,-27.74783 v 0 q 0,-16.27243 10.5348,-25.39627 10.4407,-9.12385 27.3716,-9.12385 v 0 q 16.9308,0 27.8418,9.50008 10.8169,9.50012 10.8169,25.02004 v 0 q 0,14.20312 -8.1832,26.43099 -8.0892,12.22783 -28.4062,12.22783 z m -132.7192,0 v 0 q -16.9308,0 -27.7477,-9.87635 -10.9111,-9.78228 -10.9111,-24.73787 v 0 q 0,-14.86152 8.8417,-26.71312 8.8417,-11.8516 28.4062,-11.8516 v 0 q 20.3171,0 29.535,10.81693 9.1238,10.81695 9.1238,26.43095 v 0 q 0,15.61403 -10.8169,25.77254 -10.911,10.15852 -26.431,10.15852 z m 560.0353,501.811918 v 0 q -67.065,0 -117.1051,-31.13396 -50.1342,-31.22802 -78.2582,-84.65429 -28.124,-53.52035 -28.124,-120.58537 v 0 q 0,-52.10943 17.307,-94.81285 17.2131,-42.70339 47.6886,-73.83734 30.4756,-31.134 71.1097,-48.06483 40.634,-16.93088 87.382,-16.93088 v 0 q 64.9957,0 115.5061,29.44088 50.4164,29.44091 79.5751,81.92658 29.0646,52.48566 29.0646,122.27844 v 0 q 0,50.13415 -16.1784,93.11974 -16.2724,42.98559 -46.4658,75.15422 -30.0993,32.16863 -71.1096,50.13415 -40.9162,17.96551 -90.392,17.96551 z m 13.5447,-33.20327 v 0 q 44.0203,0 75.5305,-24.73787 31.5102,-24.73787 48.441,-67.06502 16.9309,-42.32719 16.9309,-93.77818 v 0 q 0,-60.95111 -22.0101,-110.70902 -22.0101,-49.75794 -59.9165,-78.91665 -38.0003,-29.06464 -86.7236,-29.06464 v 0 q -39.9756,0 -71.4859,22.66855 -31.4161,22.66856 -49.7579,63.96103 -18.2477,41.29248 -18.2477,96.22373 v 0 q 0,42.60936 10.817,82.58498 10.8169,39.97567 32.1686,71.10963 21.3517,31.13395 52.4857,49.47574 31.134,18.24772 71.768,18.24772 z m 54.1788,-468.608648 v 0 q -19.6586,0 -29.8171,-10.91099 -10.1586,-10.81696 -10.1586,-27.74783 v 0 q 0,-16.27243 10.5348,-25.39627 10.5347,-9.12385 27.4656,-9.12385 v 0 q 16.9309,0 27.7478,9.50008 10.8169,9.50012 10.8169,25.02004 v 0 q 0,14.20312 -8.0892,26.43099 -8.1832,12.22783 -28.5002,12.22783 z m -132.7192,0 v 0 q -16.9308,0 -27.7478,-9.87635 -10.8169,-9.78228 -10.8169,-24.73787 v 0 q 0,-14.86152 8.7476,-26.71312 8.8417,-11.8516 28.5003,-11.8516 v 0 q 20.317,0 29.4409,10.81693 9.1238,10.81695 9.1238,26.43095 v 0 q 0,15.61403 -10.8169,25.77254 -10.817,10.15852 -26.431,10.15852 z"
     fill="#333333"
     id="path136"
     style="stroke-width:3.83327" />
  <path
     d=""
     fill="#000000"
     id="path138"
     style="stroke-width:3.83327" />
</svg>
