<?xml version="1.0" encoding="UTF-8" standalone="no"?>
<svg
   version="1.1"
   width="100%"
   height="100%"
   viewBox="0 0 1000 600"
   id="svg142"
   sodipodi:docname="logo.svg"
   inkscape:version="1.2.1 (9c6d41e, 2022-07-14)"
   xmlns:inkscape="http://www.inkscape.org/namespaces/inkscape"
   xmlns:sodipodi="http://sodipodi.sourceforge.net/DTD/sodipodi-0.dtd"
   xmlns="http://www.w3.org/2000/svg"
   xmlns:svg="http://www.w3.org/2000/svg">
  <defs
     id="defs146" />
  <sodipodi:namedview
     id="namedview144"
     pagecolor="#ffffff"
     bordercolor="#999999"
     borderopacity="1"
     inkscape:showpageshadow="0"
     inkscape:pageopacity="0"
     inkscape:pagecheckerboard="0"
     inkscape:deskcolor="#d1d1d1"
     showgrid="false"
     inkscape:zoom="0.40548916"
     inkscape:cx="245.38264"
     inkscape:cy="442.67521"
     inkscape:window-width="1730"
     inkscape:window-height="1027"
     inkscape:window-x="190"
     inkscape:window-y="25"
     inkscape:window-maximized="0"
     inkscape:current-layer="svg142" />
  <g
     id="g140"
     transform="matrix(1.7036768,0,0,1.7036768,-344.43262,-214.48364)">
    <circle
       r="166.66667"
       cx="222.22223"
       cy="244.44444"
       fill="#ffffff"
       transform="matrix(2.2499999,0,0,2.2499999,0,-250)"
       id="circle134" />
    <path
       d="m 157.56494,319.44444 v 0 q -17.49551,0 -30.57419,-8.12203 -13.05415,-8.14657 -20.39097,-22.08408 -7.336823,-13.96205 -7.336823,-31.45755 v 0 q 0,-13.59398 4.514973,-24.73418 4.49043,-11.14019 12.4407,-19.26222 7.95027,-8.12204 18.55062,-12.53885 10.60036,-4.41682 22.79569,-4.41682 v 0 q 16.95566,0 30.1325,7.68035 13.1523,7.68036 20.75904,21.37249 7.5822,13.69213 7.5822,31.89923 v 0 q 0,13.07868 -4.24505,24.29249 -4.22052,11.21381 -12.09717,19.60576 -7.85212,8.39195 -18.55063,13.07868 -10.67397,4.68673 -23.58089,4.68673 z m 3.53345,-8.66186 v 0 q 11.48372,0 19.70391,-6.45346 8.22018,-6.45346 12.637,-17.4955 4.41682,-11.04205 4.41682,-24.46426 v 0 q 0,-15.90054 -5.74186,-28.88107 -5.74187,-12.98054 -15.65516,-20.58728 -9.88877,-7.5822 -22.59938,-7.5822 v 0 q -10.4286,0 -18.64878,5.91363 -8.22019,5.91363 -12.98054,16.68575 -4.76034,10.77212 -4.76034,25.10224 v 0 q 0,11.11566 2.82185,21.54425 2.82186,10.4286 8.39195,18.55063 5.5701,8.12203 13.69213,12.90692 8.12204,4.76035 18.7224,4.76035 z M 175.2322,188.53491 v 0 q -5.12841,0 -7.7785,-2.84639 -2.65009,-2.82186 -2.65009,-7.23868 v 0 q 0,-4.24505 2.74824,-6.62522 2.7237,-2.38017 7.14052,-2.38017 v 0 q 4.41682,0 7.26321,2.47832 2.82185,2.47833 2.82185,6.52707 v 0 q 0,3.70522 -2.13479,6.89515 -2.11026,3.18992 -7.41044,3.18992 z m -34.62293,0 v 0 q -4.41682,0 -7.23867,-2.57648 -2.8464,-2.55194 -2.8464,-6.45346 v 0 q 0,-3.87698 2.30656,-6.96875 2.30656,-3.09177 7.41044,-3.09177 v 0 q 5.30018,0 7.70489,2.82185 2.38017,2.82186 2.38017,6.89514 v 0 q 0,4.07329 -2.82185,6.72338 -2.84639,2.65009 -6.89514,2.65009 z m 146.09847,130.90953 v 0 q -17.4955,0 -30.54964,-8.12203 -13.07869,-8.14657 -20.41551,-22.08408 -7.33682,-13.96205 -7.33682,-31.45755 v 0 q 0,-13.59398 4.51496,-24.73418 4.49043,-11.14019 12.4407,-19.26222 7.95027,-8.12204 18.55063,-12.53885 10.60036,-4.41682 22.79568,-4.41682 v 0 q 16.95567,0 30.13251,7.68035 13.1523,7.68036 20.75904,21.37249 7.5822,13.69213 7.5822,31.89923 v 0 q 0,13.07868 -4.22052,24.29249 -4.24505,11.21381 -12.1217,19.60576 -7.85212,8.39195 -18.55063,13.07868 -10.67398,4.68673 -23.5809,4.68673 z m 3.53346,-8.66186 v 0 q 11.48372,0 19.70391,-6.45346 8.22018,-6.45346 12.637,-17.4955 4.41682,-11.04205 4.41682,-24.46426 v 0 q 0,-15.90054 -5.74187,-28.88107 -5.74186,-12.98054 -15.63062,-20.58728 -9.9133,-7.5822 -22.62391,-7.5822 v 0 q -10.4286,0 -18.64879,5.91363 -8.19564,5.91363 -12.98053,16.68575 -4.76035,10.77212 -4.76035,25.10224 v 0 q 0,11.11566 2.82186,21.54425 2.82185,10.4286 8.39195,18.55063 5.5701,8.12203 13.69213,12.90692 8.12204,4.76035 18.7224,4.76035 z m 14.13381,-122.24767 v 0 q -5.12841,0 -7.7785,-2.84639 -2.65009,-2.82186 -2.65009,-7.23868 v 0 q 0,-4.24505 2.74824,-6.62522 2.74824,-2.38017 7.16505,-2.38017 v 0 q 4.41682,0 7.23868,2.47832 2.82185,2.47833 2.82185,6.52707 v 0 q 0,3.70522 -2.11026,6.89515 -2.13479,3.18992 -7.43497,3.18992 z m -34.62293,0 v 0 q -4.41682,0 -7.23868,-2.57648 -2.82185,-2.55194 -2.82185,-6.45346 v 0 q 0,-3.87698 2.28202,-6.96875 2.30656,-3.09177 7.43498,-3.09177 v 0 q 5.30018,0 7.68035,2.82185 2.38017,2.82186 2.38017,6.89514 v 0 q 0,4.07329 -2.82185,6.72338 -2.82186,2.65009 -6.89514,2.65009 z"
       fill="#333333"
       transform="matrix(2.2499999,0,0,2.2499999,0,-250)"
       id="path136" />
    <path
       d=""
       fill="#000000"
       transform="matrix(2.2499999,0,0,2.2499999,0,-250)"
       id="path138" />
  </g>
</svg>
